<svg width="60" height="55" viewBox="0 0 60 55" fill="none" xmlns="http://www.w3.org/2000/svg">
<path d="M59.5 53.8634L1.2854 -2.0H55C57.0 0 59.5 0 59.5 5V53.8634Z" fill="#4DA94E" stroke="#4DA94E"/>
<path d="M49.0672 8.5003L36.6225 20.8755L30.9328 15.2176C30.2618 14.5505 29.1741 14.5505 28.5031 15.2176C27.8323 15.8848 27.8323 16.9664 28.5031 17.6337L35.4077 24.4996C35.7432 24.8331 36.1829 25 36.6225 25C37.0622 25 37.5019 24.8331 37.8374 24.4996L51.4969 10.9165C52.1677 10.2493 52.1677 9.16767 51.4969 8.50044C50.8259 7.83321 49.738 7.83321 49.0672 8.5003Z" fill="white"/>
</svg>
