<svg width="63" height="59" viewBox="0 0 63 59" fill="none" xmlns="http://www.w3.org/2000/svg">
<path d="M31.2917 1.89736e-09C30.2917 4.5979e-05 29.5075 0.83547 29.2917 1C29.2917 1 2.29161 24.5 0.791799 26C-0.70801 27.5 0.292931 29.4978 0.792296 29.9989C1.29166 30.5 2.79199 32 4.79199 30.5C6.79199 29 6.79271 28.9989 6.79271 28.9989V57.8237C6.79271 58.47 7.3177 58.9989 7.95936 58.9989H24.2924V37.8451H38.2922V58.9989H54.6252C55.2669 58.9989 55.7919 58.47 55.7919 57.8237V28.9989C55.7919 28.9989 55.7919 28.9989 57.792 30.5C59.7921 32.0011 61.292 30.5 61.792 30C62.292 29.5 63.292 27.5 61.792 26C60.292 24.5 33.2917 1.00005 33.2917 1.00005C33.0758 0.835517 32.2917 -4.59752e-05 31.2917 1.89736e-09ZM45.792 7C45.2397 7 44.792 7.44772 44.792 8V9.5L49.9586 14V8C49.9586 7.44772 49.5109 7 48.9586 7H45.792Z" fill="white"/>
</svg>
